# xmcd
#
# Track frame offsets: 
#        182
#        21790
#        58052
#
# Disc length: 1195 seconds
#
# Revision: 4
# Processed by: cddbd v1.5.2PL0 Copyright (c) Steve Scherf et al.
# Submitted via: ExactAudioCopy v1.3
#
DISCID=1f04a903
DTITLE=Lisa Stansfield - All Woman
DYEAR=1991
DGENRE=Pop
TTITLE0=All Woman
TTITLE1=Everything Will Get Better (Extended Mix)
TTITLE2=Change (Metamorphosis Mix)
EXTD=YEAR: 1991
EXTT0=
EXTT1=
EXTT2=
PLAYORDER=
